<svg id="Layer_1" data-name="Layer 1" xmlns="http://www.w3.org/2000/svg" xmlns:xlink="http://www.w3.org/1999/xlink" viewBox="0 0 1464 348"><defs><style>.cls-1{fill:url(#linear-gradient);}.cls-2{fill:url(#linear-gradient-2);}.cls-3{fill:url(#linear-gradient-3);}.cls-4{fill:url(#linear-gradient-4);}.cls-5{fill:url(#linear-gradient-5);}.cls-6{fill:url(#linear-gradient-6);}.cls-7{fill:url(#linear-gradient-7);}.cls-8{fill:url(#linear-gradient-8);}.cls-9{fill:url(#linear-gradient-9);}.cls-10{fill:url(#linear-gradient-10);}.cls-11{fill:#7c35c1;}.cls-12{fill:url(#linear-gradient-11);}.cls-13{fill:url(#linear-gradient-12);}.cls-14{fill:url(#linear-gradient-13);}.cls-15{fill:url(#linear-gradient-14);}</style><linearGradient id="linear-gradient" x1="344.31" y1="132.91" x2="1516.61" y2="377.9" gradientUnits="userSpaceOnUse"><stop offset="0" stop-color="#7c35c1"/><stop offset="1" stop-color="#14e2a4"/></linearGradient><linearGradient id="linear-gradient-2" x1="344.58" y1="131.59" x2="1516.88" y2="376.58" xlink:href="#linear-gradient"/><linearGradient id="linear-gradient-3" x1="348.56" y1="112.56" x2="1520.86" y2="357.55" xlink:href="#linear-gradient"/><linearGradient id="linear-gradient-4" x1="354.41" y1="84.55" x2="1526.71" y2="329.54" xlink:href="#linear-gradient"/><linearGradient id="linear-gradient-5" x1="354.16" y1="85.76" x2="1526.46" y2="330.75" xlink:href="#linear-gradient"/><linearGradient id="linear-gradient-6" x1="362.28" y1="46.93" x2="1534.57" y2="291.92" xlink:href="#linear-gradient"/><linearGradient id="linear-gradient-7" x1="364.26" y1="37.44" x2="1536.56" y2="282.43" xlink:href="#linear-gradient"/><linearGradient id="linear-gradient-8" x1="367.96" y1="19.73" x2="1540.26" y2="264.72" xlink:href="#linear-gradient"/><linearGradient id="linear-gradient-9" x1="376.06" y1="-19.03" x2="1548.36" y2="225.97" xlink:href="#linear-gradient"/><linearGradient id="linear-gradient-10" x1="376.94" y1="-23.24" x2="1549.24" y2="221.75" xlink:href="#linear-gradient"/><linearGradient id="linear-gradient-11" x1="234.12" y1="239.95" x2="258.76" y2="239.95" xlink:href="#linear-gradient"/><linearGradient id="linear-gradient-12" x1="70" y1="180.08" x2="318.03" y2="180.08" xlink:href="#linear-gradient"/><linearGradient id="linear-gradient-13" x1="184.85" y1="180.08" x2="452.09" y2="180.08" xlink:href="#linear-gradient"/><linearGradient id="linear-gradient-14" x1="283.4" y1="225.73" x2="308.04" y2="225.73" xlink:href="#linear-gradient"/></defs><path class="cls-1" d="M528.15,228.52H503.71V136.1H467.78V116.61h96.61V136.1H528.15Z"/><path class="cls-2" d="M612,230.27q-15.76,0-26.27-7a37.17,37.17,0,0,1-13.55-16.6,48.52,48.52,0,0,1-3.88-19.34q0-17.21,10.05-28.92Q590.2,144.55,612,144.55q17.89,0,29.84,10.12,13.71,11.58,13.71,32.66,0,18.58-11.19,30.38Q632.45,230.28,612,230.27Zm-.3-17.81a20.15,20.15,0,0,0,13.62-4.87q7.62-6.56,7.62-20,0-12.18-6.17-18.88a19,19,0,0,0-14.62-6.09,19.37,19.37,0,0,0-15.07,6.39Q591,175.84,591,187.64q0,11.27,5.78,18A18.72,18.72,0,0,0,611.67,212.46Z"/><path class="cls-3" d="M707,230.27q-15.75,0-26.26-7a37.1,37.1,0,0,1-13.55-16.6,48.53,48.53,0,0,1-3.89-19.34q0-17.21,10.05-28.92,11.88-13.86,33.65-13.86,17.89,0,29.85,10.12,13.7,11.58,13.7,32.66,0,18.58-11.19,30.38Q727.46,230.28,707,230.27Zm-.3-17.81a20.17,20.17,0,0,0,13.63-4.87q7.61-6.56,7.61-20,0-12.18-6.17-18.88a19,19,0,0,0-14.61-6.09,19.39,19.39,0,0,0-15.08,6.39Q686,175.84,686,187.64q0,11.27,5.79,18A18.7,18.7,0,0,0,706.68,212.46Z"/><path class="cls-4" d="M763.63,116.3h22.45V228.52H763.63Z"/><path class="cls-5" d="M859.32,228.52H803.59v-17h45.68q11.58,0,11.58-8.3,0-8-11.58-8H830.39q-9.66,0-14.54-1.14-6.86-1.59-10.12-6.17Q802,182.77,802,172.49q0-26.19,29-26.19h46.52v17H839.15q-8.29,0-11.12,1.29c-2.48,1.12-3.73,3.4-3.73,6.85q0,6.86,10.36,6.86h19.79q12.25,0,19.11,4.71,8.37,5.79,8.38,18.35,0,11.73-6.21,19.45A20,20,0,0,1,859.32,228.52Z"/><path class="cls-6" d="M923.73,228.52H899.6V116.3h34.79l28.4,86,28.55-86h34.49V228.52h-23.22l1.82-87.24-28.55,87.24H950.76l-29.46-88Z"/><path class="cls-7" d="M1084.68,163.28h-36.32v-17h44.46q33.89,0,33.88,30.68v51.54h-58.24q-11.88,0-18.73-6.55t-6.85-17.81q0-15,9.75-20.94,7.61-4.64,23.14-4.64h28.78q0-8.69-4.23-12T1084.68,163.28Zm-7.31,48.87h27.18V195h-25.66c-4,0-6.85.4-8.68,1.22q-4.41,2-4.41,7.38,0,5.1,3,7Q1071.28,212.15,1077.37,212.15Z"/><path class="cls-8" d="M1167.58,228.52H1146V146.3h40.73q18.35,0,26.42,6.85t8.07,23.22v52.15h-22V179.19q0-9.13-2.29-11.73-2.58-3-11.87-3h-17.52Z"/><path class="cls-9" d="M1293.81,116.3h22V228.52H1274q-16.83,0-27.79-9.29-12.49-10.57-12.49-29.76,0-25.66,12-34.42t48-8.75Zm0,94.56V164h-5q-19,0-25.27,4.64-6.85,5.1-6.85,21.17,0,13.69,7.91,17.66Q1271.35,210.86,1293.81,210.86Z"/><path class="cls-10" d="M1387.3,146.3H1409v82.22h-40.88q-18.12,0-26.08-7.27t-8-22.88V146.3h21.54v50.55q0,6.93,2.06,9.67,3,4,12,4h17.66Z"/><path class="cls-11" d="M627,276.47h-8v-23.3h8c7.52,0,10.75,3.49,10.75,11.65S634.55,276.47,627,276.47ZM622,255.53v18.58h4.93c5.52,0,7.82-2.73,7.82-9.29s-2.3-9.29-7.82-9.29Z"/><path class="cls-11" d="M646,253.17v23.3h-2.93v-23.3Z"/><path class="cls-11" d="M662.45,263.59h10.38v1.23c0,8.62-3.09,12.32-10.38,12.32-7.76,0-11.09-3.7-11.09-12.32s3.33-12.32,11.09-12.32c5.92,0,8.95,2.4,10,8h-2.8c-.89-3.86-3-5.46-7.25-5.46-5.7,0-8,2.87-8,9.79s2.37,9.79,8,9.79c5.36,0,7.59-2.56,7.59-8.79h-7.59Z"/><path class="cls-11" d="M681.08,253.17v23.3h-2.93v-23.3Z"/><path class="cls-11" d="M703.55,255.7h-7.29v20.77h-2.93V255.7h-7.25v-2.53h17.47Z"/><path class="cls-11" d="M703.55,276.47l7.66-23.3h5.39l7.36,23.3h-3.07l-1.79-5.66H708.34l-1.83,5.66Zm10.19-22.37L709,268.58h9.33Z"/><path class="cls-11" d="M742.93,276.47H728.61v-23.3h2.93v20.77h11.39Z"/><path class="cls-11" d="M765.89,276.47h-8v-23.3h8c7.53,0,10.76,3.49,10.76,11.65S773.42,276.47,765.89,276.47Zm-5.06-20.94v18.58h4.93c5.53,0,7.82-2.73,7.82-9.29s-2.29-9.29-7.82-9.29Z"/><path class="cls-11" d="M802.77,264.82c0,8.62-3.29,12.32-11,12.32s-11.08-3.7-11.08-12.32S784,252.5,791.72,252.5,802.77,256.2,802.77,264.82Zm-19.07,0c0,6.93,2.36,9.79,8,9.79s8-2.86,8-9.79-2.37-9.79-8-9.79S783.7,257.9,783.7,264.82Z"/><path class="cls-11" d="M827.9,268.85c-1.63,5.79-4.66,8.29-10.28,8.29-7.53,0-10.86-3.7-10.86-12.32s3.33-12.32,10.86-12.32c6.19,0,9.19,2.5,10.28,8.29H825c-1-4.16-3-5.76-7.35-5.76-5.43,0-7.79,2.87-7.79,9.79s2.33,9.79,7.79,9.79c3.92,0,6-1.6,7.35-5.76Z"/><path class="cls-11" d="M848.37,255.7h-7.29v20.77h-2.93V255.7h-7.26v-2.53h17.48Z"/><path class="cls-11" d="M873.5,264.82c0,8.62-3.29,12.32-11,12.32s-11.08-3.7-11.08-12.32,3.33-12.32,11.08-12.32S873.5,256.2,873.5,264.82Zm-19.07,0c0,6.93,2.36,9.79,8,9.79s8-2.86,8-9.79-2.37-9.79-8-9.79S854.43,257.9,854.43,264.82Z"/><path class="cls-11" d="M889,267.62h-7.2v8.89h-2.93V253.2h10c5.69,0,8.05,2.77,8.05,7.29,0,3.7-1.53,6-5.05,6.79l5.12,9.19h-3.13Zm-.3-2.27c3.69,0,5.26-1.63,5.26-4.89s-1.53-4.93-5.26-4.93h-6.9v9.82Z"/><path class="cls-11" d="M915.14,255.53v7.59h11.38v2.37H915.14v11h-2.93v-23.3h15.65v2.36Z"/><path class="cls-11" d="M953.32,264.82c0,8.62-3.3,12.32-11.05,12.32s-11.09-3.7-11.09-12.32,3.33-12.32,11.09-12.32S953.32,256.2,953.32,264.82Zm-19.08,0c0,6.93,2.37,9.79,8,9.79s8-2.86,8-9.79-2.36-9.79-8-9.79S934.24,257.9,934.24,264.82Z"/><path class="cls-11" d="M968.76,267.62h-7.19v8.89h-2.93V253.2h10c5.7,0,8.06,2.77,8.06,7.29,0,3.7-1.53,6-5.06,6.79l5.13,9.19h-3.13Zm-.3-2.27c3.7,0,5.26-1.63,5.26-4.89s-1.53-4.93-5.26-4.93h-6.89v9.82Z"/><path class="cls-11" d="M998.12,276.47v-10H997l-7-13.32h3.26l6.3,12.68,6.29-12.68h3.1l-6.86,13.32H1001v10h-2.83Z"/><path class="cls-11" d="M1033.1,264.82c0,8.62-3.29,12.32-11,12.32s-11.09-3.7-11.09-12.32,3.33-12.32,11.09-12.32S1033.1,256.2,1033.1,264.82Zm-19.07,0c0,6.93,2.36,9.79,8,9.79s8-2.86,8-9.79-2.36-9.79-8-9.79S1014,257.9,1014,264.82Z"/><path class="cls-11" d="M1038.09,253.17H1041V268c0,4.66,1.8,6.59,6.16,6.59s6.12-1.93,6.12-6.59V253.17h2.93V268c0,6.39-2.73,9.12-9,9.12s-9.09-2.73-9.09-9.12Z"/><path class="cls-11" d="M1072.67,267.62h-7.19v8.89h-2.93V253.2h10c5.69,0,8,2.77,8,7.29,0,3.7-1.53,6-5.06,6.79l5.13,9.19h-3.13Zm-.3-2.27c3.7,0,5.26-1.63,5.26-4.89s-1.53-4.93-5.26-4.93h-6.89v9.82Z"/><path class="cls-11" d="M1113.42,269.85c0,4.63-2.5,6.62-8.29,6.62h-9.19v-23.3H1105c5.16,0,7.39,1.8,7.39,6,0,4.59-3.9,5-3.9,5A5.39,5.39,0,0,1,1113.42,269.85Zm-14.55-6.59h5.76c3.33,0,4.72-1.2,4.72-4s-1.36-3.86-4.72-3.86h-5.76Zm11.48,6.59c0-3.16-1.66-4.5-5.59-4.5h-5.89v8.89h5.89C1108.75,274.24,1110.35,273,1110.35,269.85Z"/><path class="cls-11" d="M1118.41,253.17h2.92V268c0,4.66,1.8,6.59,6.16,6.59s6.13-1.93,6.13-6.59V253.17h2.93V268c0,6.39-2.73,9.12-9.06,9.12s-9.08-2.73-9.08-9.12Z"/><path class="cls-11" d="M1159,270.05c0,5-2.59,7.09-8.72,7.09s-8.75-2.2-8.75-7.33h2.69c0,3.63,1.73,5.1,6.06,5.1s5.93-1.3,5.93-4.43c0-6.56-14.35-2.56-14.35-10.89,0-5,2.53-7.09,8.42-7.09s8.39,2.2,8.39,7.33H1156c0-3.6-1.66-5.1-5.73-5.1s-5.62,1.27-5.62,4.43C1144.67,265.12,1159,261.26,1159,270.05Z"/><path class="cls-11" d="M1167.27,253.17v23.3h-2.93v-23.3Z"/><path class="cls-11" d="M1192.83,253.17v23.3h-4.89l-11.22-22.2v22.2h-2.8v-23.3h4.9l11.22,22.2v-22.2Z"/><path class="cls-11" d="M1202.41,255.53v7.59h11.39v2.37h-11.39v8.62h12.72v2.36h-15.65v-23.3h15.65v2.36Z"/><path class="cls-11" d="M1236.27,270.05c0,5-2.6,7.09-8.73,7.09s-8.75-2.2-8.75-7.33h2.7c0,3.63,1.73,5.1,6,5.1s5.93-1.3,5.93-4.43c0-6.56-14.35-2.56-14.35-10.89,0-5,2.53-7.09,8.42-7.09s8.4,2.2,8.4,7.33h-2.67c0-3.6-1.66-5.1-5.73-5.1s-5.62,1.27-5.62,4.43C1221.92,265.12,1236.27,261.26,1236.27,270.05Z"/><path class="cls-11" d="M1257.73,270.05c0,5-2.59,7.09-8.72,7.09s-8.75-2.2-8.75-7.33H1243c0,3.63,1.73,5.1,6.06,5.1s5.93-1.3,5.93-4.43c0-6.56-14.35-2.56-14.35-10.89,0-5,2.53-7.09,8.42-7.09s8.39,2.2,8.39,7.33h-2.66c0-3.6-1.67-5.1-5.73-5.1s-5.62,1.27-5.62,4.43C1243.39,265.12,1257.73,261.26,1257.73,270.05Z"/><polygon class="cls-12" points="234.12 211.69 234.12 282.45 258.76 282.45 258.76 197.46 234.12 211.69"/><path class="cls-13" d="M135.57,211.48,110.94,225.7V197.28l24.63-14.23,24.64-14.22,24.64-14.23,24.64-14.22,24.63-14.22L283.4,97.71,308,83.48l10-5.77H139.16a42.13,42.13,0,0,0-41.11,32.92L71,231.09a42.14,42.14,0,0,0,41.12,51.36h48.05V197.26Z"/><path class="cls-14" d="M409.93,77.71H335.52V96L308,111.91,283.4,126.14l-49.28,28.44-24.63,14.23L184.85,183v99.42h24.64v-85l24.63-14.22L258.76,169,308,140.58l27.48-15.87V282.45h47.4A42.14,42.14,0,0,0,424,249.53l27-120.46A42.14,42.14,0,0,0,409.93,77.71Z"/><polygon class="cls-15" points="283.4 183.23 283.4 282.45 308.04 282.45 308.04 169.01 283.4 183.23"/></svg>